<?xml version="1.0" encoding="UTF-8" standalone="no"?><!DOCTYPE svg PUBLIC "-//W3C//DTD SVG 1.1//EN" "http://www.w3.org/Graphics/SVG/1.1/DTD/svg11.dtd"><svg width="100%" height="100%" viewBox="0 0 434 299" version="1.1" xmlns="http://www.w3.org/2000/svg" xmlns:xlink="http://www.w3.org/1999/xlink" xml:space="preserve" xmlns:serif="http://www.serif.com/" style="fill-rule:evenodd;clip-rule:evenodd;stroke-linejoin:round;stroke-miterlimit:2;"><g><path d="M217.328,24.758l-4.4,-0c-3.096,-4.351 -8.181,-7.191 -13.923,-7.191c-9.426,-0 -17.079,7.653 -17.079,17.079c0,9.426 7.653,17.078 17.079,17.078c6.267,0 11.749,-3.382 14.72,-8.418l3.603,-0l-0,40.537l-83.844,0l0,-83.843l83.844,-0l-0,24.758Z" style="fill:#39b3ed;"/><path d="M266.486,83.843l-42.06,0l-0,-83.843l83.843,-0l0,83.843l-23.235,0l-0,-4.398c4.351,-3.097 7.191,-8.181 7.191,-13.923c-0,-9.426 -7.653,-17.079 -17.079,-17.079c-9.426,-0 -17.079,7.653 -17.079,17.079c0,6.266 3.382,11.749 8.419,14.72l-0,3.601Z" style="fill:#ecb855;"/><path d="M176.026,90.941l41.302,0l-0,83.844l-83.844,-0l0,-83.844l23.994,0l0,1.67c-4.351,3.097 -7.191,8.181 -7.191,13.923c0,9.427 7.653,17.079 17.079,17.079c9.426,0 17.079,-7.652 17.079,-17.079c-0,-6.266 -3.382,-11.749 -8.419,-14.72l0,-0.873Z" style="fill:#1d68a5;"/><path d="M224.426,144.944l4.389,0c3.097,4.351 8.181,7.191 13.923,7.191c9.426,0 17.079,-7.653 17.079,-17.079c-0,-9.426 -7.653,-17.078 -17.079,-17.078c-6.266,-0 -11.749,3.382 -14.72,8.418l-3.592,0l-0,-35.455l83.843,0l0,83.844l-83.843,-0l-0,-29.841Z" style="fill:#39b3ed;"/><path d="M171.309,96.427c4.23,1.503 7.262,5.544 7.262,10.287c0,6.023 -4.89,10.913 -10.913,10.913c-6.023,-0 -10.913,-4.89 -10.913,-10.913c0,-4.753 3.045,-8.8 7.288,-10.296l0,-12.532l7.276,-0l-0,12.541Z" style="fill:#39b3ed;"/><path d="M271.501,90.941l-0,-15.077c-4.23,-1.503 -7.263,-5.543 -7.263,-10.286c0,-6.023 4.89,-10.913 10.913,-10.913c6.023,-0 10.913,4.89 10.913,10.913c0,4.752 -3.045,8.8 -7.288,10.295l0,12.533l-0.018,-0l-0,2.535l-7.257,0Z" style="fill:#39b3ed;"/><path d="M221.974,37.287l0,0.006l-12.542,-0c-1.503,4.23 -5.543,7.262 -10.286,7.262c-6.023,0 -10.913,-4.889 -10.913,-10.913c-0,-6.023 4.89,-10.912 10.913,-10.912c4.752,-0 8.8,3.044 10.295,7.287l12.533,0l0,0.013l2.484,0l-0,7.257l-2.484,-0Z" style="fill:#ecb855;"/><path d="M219.742,132.262l0,0l12.542,0c1.503,-4.23 5.543,-7.262 10.286,-7.262c6.024,-0 10.913,4.89 10.913,10.913c0,6.023 -4.889,10.913 -10.913,10.913c-4.752,-0 -8.8,-3.045 -10.295,-7.288l-12.533,-0l0,-0.019l-2.414,0l-0,-7.257l2.414,0Z" style="fill:#1d68a5;"/></g><text x="-8.785px" y="296.845px" style="font-family:'Arial-BoldMT', 'Arial', sans-serif;font-weight:700;font-size:127.604px;fill:#1d68a5;">usercle</text></svg>